<svg xmlns="http://www.w3.org/2000/svg" width="65.519" height="65.519" viewBox="0 0 65.519 65.519"><g id="Group_7" data-name="Group 7" transform="translate(-406.35 -256.35)"><path id="Path_36" data-name="Path 36" d="M454.663,271.18a27.91,27.91,0,0,1,.755,38.7c-.461.5-.938.988-1.439,1.449a27.918,27.918,0,1,1-4.515-44.241" transform="translate(0 2.376)" fill="none" stroke="#183059" stroke-linecap="round" stroke-linejoin="round" stroke-width="1.3"></path><path id="Path_37" data-name="Path 37" d="M444.981,275.315a18.085,18.085,0,1,1-6.112-4.03" transform="translate(2.772 5.149)" fill="none" stroke="#183059" stroke-linecap="round" stroke-linejoin="round" stroke-width="1.3"></path><path id="Path_38" data-name="Path 38" d="M435.3,279.436A8.374,8.374,0,1,1,428.828,277" transform="translate(5.545 7.921)" fill="none" stroke="#183059" stroke-linecap="round" stroke-linejoin="round" stroke-width="1.3"></path><path id="Path_39" data-name="Path 39" d="M456.168,262.584l-5.584,5.584H445v-5.584L450.584,257v5.584Z" transform="translate(15.05)" fill="none" stroke="#183059" stroke-linecap="round" stroke-linejoin="round" stroke-width="1.3"></path><line id="Line_4" data-name="Line 4" y1="25" x2="25" transform="translate(435 268.219)" fill="none" stroke="#183059" stroke-linecap="round" stroke-linejoin="round" stroke-width="1.3"></line></g></svg>