<svg xmlns="http://www.w3.org/2000/svg" width="51.3" height="61.3" viewBox="0 0 51.3 61.3"><g id="Group_8" data-name="Group 8" transform="translate(-410.35 -176.835)"><path id="Path_42" data-name="Path 42" d="M439.2,222.447c0-6.574,3.749-9.535,5.537-13.2.007,0,.012-.007.007-.018a.012.012,0,0,1,.011-.012,16.636,16.636,0,0,0,2.335-9.119,15.383,15.383,0,0,0-4.723-11.53A16.7,16.7,0,0,0,430,183" transform="translate(5.983 1.889)" fill="none" stroke="#183059" stroke-linecap="round" stroke-linejoin="round" stroke-width="1.3" fill-rule="evenodd"></path><path id="Path_43" data-name="Path 43" d="M424.889,222.447c0-6.574-3.749-9.535-5.537-13.2-.007,0-.012-.007-.007-.018a.012.012,0,0,0-.01-.012A16.636,16.636,0,0,1,417,200.094a15.383,15.383,0,0,1,4.723-11.53A16.7,16.7,0,0,1,434.093,183" transform="translate(1.889 1.889)" fill="none" stroke="#183059" stroke-linecap="round" stroke-linejoin="round" stroke-width="1.3" fill-rule="evenodd"></path><path id="Path_44" data-name="Path 44" d="M441.408,213v3.945a2.629,2.629,0,0,1-2.63,2.63H425.63a2.629,2.629,0,0,1-2.63-2.63V213h13.149" transform="translate(3.779 11.336)" fill="none" stroke="#183059" stroke-linecap="round" stroke-linejoin="round" stroke-width="1.3"></path><path id="Path_45" data-name="Path 45" d="M425,218a6.574,6.574,0,0,0,13.149,0" transform="translate(4.408 12.91)" fill="none" stroke="#183059" stroke-linecap="round" stroke-linejoin="round" stroke-width="1.3" fill-rule="evenodd"></path><line id="Line_7" data-name="Line 7" y1="3" transform="translate(436 177.485)" fill="none" stroke="#183059" stroke-linecap="round" stroke-linejoin="round" stroke-width="1.3"></line><line id="Line_8" data-name="Line 8" x1="1.739" y1="2.954" transform="translate(423.217 180.541)" fill="none" stroke="#183059" stroke-linecap="round" stroke-linejoin="round" stroke-width="1.3"></line><line id="Line_9" data-name="Line 9" x1="2.969" y1="1.68" transform="translate(414.188 189.894)" fill="none" stroke="#183059" stroke-linecap="round" stroke-linejoin="round" stroke-width="1.3"></line><line id="Line_10" data-name="Line 10" x1="4" transform="translate(411 201.485)" fill="none" stroke="#183059" stroke-linecap="round" stroke-linejoin="round" stroke-width="1.3"></line><line id="Line_11" data-name="Line 11" x1="2.925" y2="1.757" transform="translate(414.505 213.371)" fill="none" stroke="#183059" stroke-linecap="round" stroke-linejoin="round" stroke-width="1.3"></line><line id="Line_12" data-name="Line 12" y1="2.998" x2="1.664" transform="translate(446.528 180.216)" fill="none" stroke="#183059" stroke-linecap="round" stroke-linejoin="round" stroke-width="1.3"></line><line id="Line_13" data-name="Line 13" y1="1.757" x2="2.925" transform="translate(454.53 189.331)" fill="none" stroke="#183059" stroke-linecap="round" stroke-linejoin="round" stroke-width="1.3"></line><line id="Line_14" data-name="Line 14" x2="4" transform="translate(457 201.485)" fill="none" stroke="#183059" stroke-linecap="round" stroke-linejoin="round" stroke-width="1.3"></line><line id="Line_15" data-name="Line 15" x2="2.969" y2="1.68" transform="translate(454.814 212.884)" fill="none" stroke="#183059" stroke-linecap="round" stroke-linejoin="round" stroke-width="1.3"></line><path id="Path_46" data-name="Path 46" d="M431.26,216.464v-9.2L426,202" transform="translate(4.723 7.872)" fill="none" stroke="#183059" stroke-linecap="round" stroke-linejoin="round" stroke-width="1.3"></path><line id="Line_16" data-name="Line 16" y1="6" x2="5" transform="translate(436 209.485)" fill="none" stroke="#183059" stroke-linecap="round" stroke-linejoin="round" stroke-width="1.3"></line></g></svg>